<svg width="146" height="47" viewBox="0 0 146 47" fill="none" xmlns="http://www.w3.org/2000/svg">
                <path d="M0 6.34375V30.0273V46.9998H15.4697V6.34375H0Z" fill="white"></path>
                <path d="M129.479 6.34375L114.757 32.275H114.57L100.039 6.34375H83.6922V37.5283L67.4066 6.34375H50.7501L30.0173 46.9998H46.2998L49.1828 40.4243H68.6611L71.4151 46.9998H97.3464V25.5092L109.498 46.9998H119.395L131.733 24.9449V46.9998H145.323V6.34375H129.479ZM53.5654 30.3368L57.0741 22.323L59.009 17.6244H59.196L61.0117 22.3843L64.3945 30.3401L53.5654 30.3368Z" fill="white"></path>

                <path id="star" d="M41.0139 8.93292L39.437 4.31166L34.0901 5.63709L33.3065 0H28.9303L28.1434 5.63709L22.7515 4.31166L21.0713 8.93292L26.3665 11.2839L23.1255 16.3405L26.9696 18.972L31.191 14.5087L35.3188 18.8817L38.8597 16.0825L35.6284 11.2839L41.0139 8.93292Z" fill="white"> </path>

            </svg>